<svg xmlns="http://www.w3.org/2000/svg" width="400" height="280" viewBox="0 0 400 280">
  <rect width="400" height="280" fill="#0d0d1a"/>
  <!-- Nodes in graph -->
  <circle cx="200" cy="60" r="18" fill="none" stroke="#e0b354" stroke-width="2"/>
  <text x="200" y="65" font-family="sans-serif" font-size="8" fill="#e0b354" text-anchor="middle">炼金术</text>
  <circle cx="100" cy="130" r="14" fill="none" stroke="#4a8" stroke-width="2"/>
  <text x="100" y="134" font-family="sans-serif" font-size="7" fill="#4a8" text-anchor="middle">卡巴拉</text>
  <circle cx="300" cy="130" r="14" fill="none" stroke="#84f" stroke-width="2"/>
  <text x="300" y="134" font-family="sans-serif" font-size="7" fill="#84f" text-anchor="middle">赫尔墨斯</text>
  <circle cx="160" cy="200" r="14" fill="none" stroke="#f66" stroke-width="2"/>
  <text x="160" y="204" font-family="sans-serif" font-size="7" fill="#f66" text-anchor="middle">魔法实践</text>
  <circle cx="280" cy="200" r="14" fill="none" stroke="#fa0" stroke-width="2"/>
  <text x="280" y="204" font-family="sans-serif" font-size="7" fill="#fa0" text-anchor="middle">塔罗</text>
  <circle cx="200" cy="140" r="10" fill="none" stroke="#888" stroke-width="1.5"/>
  <text x="200" y="144" font-family="sans-serif" font-size="6" fill="#888" text-anchor="middle">炼金</text>
  <!-- Edges -->
  <line x1="200" y1="78" x2="100" y2="116" stroke="#333" stroke-width="1"/>
  <line x1="200" y1="78" x2="300" y2="116" stroke="#333" stroke-width="1"/>
  <line x1="200" y1="78" x2="200" y2="130" stroke="#333" stroke-width="1"/>
  <line x1="100" y1="144" x2="160" y2="186" stroke="#333" stroke-width="1"/>
  <line x1="300" y1="144" x2="280" y2="186" stroke="#333" stroke-width="1"/>
  <line x1="200" y1="150" x2="160" y2="186" stroke="#333" stroke-width="1"/>
  <line x1="200" y1="150" x2="280" y2="186" stroke="#333" stroke-width="1"/>
  <text x="200" y="255" font-family="sans-serif" font-size="13" fill="#666" text-anchor="middle">[ Obsidian 图谱视图截图 ]</text>
  <text x="200" y="273" font-family="sans-serif" font-size="11" fill="#555" text-anchor="middle">替换为你的知识图谱截图</text>
</svg>